<?xml version="1.0" encoding="UTF-8" standalone="no"?><!DOCTYPE svg PUBLIC "-//W3C//DTD SVG 1.1//EN" "http://www.w3.org/Graphics/SVG/1.1/DTD/svg11.dtd"><svg width="100%" height="100%" viewBox="0 0 500 500" version="1.1" xmlns="http://www.w3.org/2000/svg" xmlns:xlink="http://www.w3.org/1999/xlink" xml:space="preserve" xmlns:serif="http://www.serif.com/" style="fill-rule:evenodd;clip-rule:evenodd;stroke-linejoin:round;stroke-miterlimit:2;"><path id="old-mobile" d="M340,75l-165,0l0,-75l-50,0l0,465c0,19.25 15.725,35 34.95,35l180.05,0c19.225,0 35,-15.775 35,-35l0,-354.975c0,-19.3 -15.775,-35.025 -35,-35.025l0,0Zm-140,300c-17.275,0 -31.25,-11.175 -31.25,-25c0,-13.825 13.975,-25 31.25,-25c17.275,0 31.25,11.175 31.25,25c0,13.825 -13.975,25 -31.25,25Zm31.25,50c0,13.825 -13.975,25 -31.25,25c-17.275,0 -31.25,-11.175 -31.25,-25c0,-13.825 13.975,-25 31.25,-25c17.275,0 31.25,11.175 31.25,25Zm-56.25,-150l0,-150l150,0l0,150l-150,0Zm125,100c-17.275,0 -31.25,-11.175 -31.25,-25c0,-13.825 13.975,-25 31.25,-25c17.275,0 31.25,11.175 31.25,25c0,13.825 -13.975,25 -31.25,25Zm31.25,50c0,13.825 -13.975,25 -31.25,25c-17.275,0 -31.25,-11.175 -31.25,-25c0,-13.825 13.975,-25 31.25,-25c17.275,0 31.25,11.175 31.25,25Z" style="fill:#565b73;fill-rule:nonzero;"/></svg>